<?xml version="1.0" standalone="no"?>
<!DOCTYPE svg PUBLIC "-//W3C//DTD SVG 20010904//EN"
 "http://www.w3.org/TR/2001/REC-SVG-20010904/DTD/svg10.dtd">
<svg version="1.0" xmlns="http://www.w3.org/2000/svg"
 width="848.000000pt" height="1280.000000pt" viewBox="0 0 848.000000 1280.000000"
 preserveAspectRatio="xMidYMid meet">

<g transform="translate(0.000000,1280.000000) scale(0.100000,-0.100000)"
fill="#000000" stroke="none">
<path d="M3735 10941 c-11 -5 -39 -6 -62 -3 -27 3 -49 0 -58 -8 -16 -13 -37
-17 -125 -23 -25 -2 -57 -11 -70 -19 -14 -9 -43 -19 -64 -23 -22 -4 -49 -13
-60 -21 -12 -8 -38 -19 -60 -25 -21 -6 -48 -20 -60 -31 -11 -11 -36 -27 -54
-35 -18 -7 -41 -27 -50 -44 -11 -19 -23 -28 -34 -25 -11 2 -25 -9 -42 -35 -16
-24 -31 -36 -40 -33 -9 3 -21 -5 -31 -20 -9 -14 -25 -28 -36 -31 -10 -4 -19
-13 -19 -22 0 -18 -102 -123 -119 -123 -6 0 -11 -7 -11 -15 0 -8 -12 -25 -26
-38 -14 -12 -32 -34 -40 -49 -8 -15 -27 -41 -43 -57 -16 -16 -35 -42 -43 -58
-8 -15 -19 -37 -24 -48 -6 -11 -17 -33 -26 -50 -8 -16 -19 -39 -25 -50 -6 -11
-17 -33 -24 -50 -8 -16 -24 -46 -36 -65 -12 -19 -24 -51 -26 -70 -3 -19 -12
-53 -22 -75 -39 -87 -44 -155 -40 -525 2 -195 4 -364 5 -375 5 -47 32 -221 37
-235 17 -45 22 -126 8 -123 -5 1 -18 5 -27 8 -10 4 -18 3 -18 -2 0 -5 14 -14
30 -20 20 -7 30 -18 30 -31 0 -12 11 -42 25 -69 24 -46 29 -45 27 7 -3 95 -14
296 -17 300 -1 3 -6 32 -9 65 -4 33 -9 72 -12 88 -3 17 0 27 8 27 6 0 3 6 -7
14 -18 13 -18 13 1 24 10 6 14 12 8 12 -16 0 -14 73 3 92 8 9 12 22 8 27 -3 6
-1 11 5 11 6 0 9 4 6 9 -3 4 3 16 14 26 11 10 20 23 20 28 0 6 10 21 22 34
l23 24 -27 -5 -27 -5 23 37 c12 20 21 43 18 51 -2 8 0 11 5 8 7 -4 10 15 9 49
-1 33 4 64 12 75 9 13 9 19 2 19 -6 0 -9 4 -6 9 3 5 8 66 11 136 6 127 15 175
35 175 6 0 28 11 49 25 22 15 45 23 54 19 10 -4 29 4 48 20 17 14 39 26 50 26
11 0 23 10 28 24 10 26 30 36 69 36 14 0 36 10 49 22 13 12 23 16 23 10 0 -7
9 -12 20 -12 24 0 70 20 70 31 0 5 18 14 40 20 21 7 41 19 43 28 4 13 5 13 6
-1 1 -22 17 -23 25 -2 4 9 13 14 22 10 8 -3 12 -2 9 3 -6 11 12 17 79 27 36 5
50 3 57 -7 7 -11 9 -11 9 -1 0 7 4 11 9 7 5 -3 13 -1 16 5 9 14 35 -7 35 -28
0 -13 2 -13 18 1 24 22 38 22 21 0 -8 -9 -9 -14 -3 -10 6 3 23 26 38 50 28 43
59 59 54 27 -5 -27 11 -23 40 12 15 18 21 29 15 24 -18 -10 -16 12 2 30 13 14
15 13 15 -4 0 -10 5 -34 12 -52 10 -30 12 -32 19 -14 7 16 8 17 8 2 1 -22 21
-24 21 -2 0 23 24 11 28 -14 2 -13 8 -19 18 -15 10 3 14 -2 14 -18 0 -20 13
-19 16 2 3 22 6 23 14 4 7 -18 8 -17 15 10 3 17 11 39 16 50 9 18 9 18 5 -4
-3 -13 2 -30 10 -38 12 -13 14 -11 14 15 0 16 2 31 5 33 8 8 75 -3 70 -11 -3
-4 6 -7 20 -7 21 0 24 3 19 23 -6 23 3 30 29 25 8 -1 6 8 -11 59 -2 8 3 6 11
-6 9 -11 19 -33 22 -47 7 -28 19 -35 30 -17 9 15 25 12 25 -4 0 -12 20 -26 37
-26 3 0 3 11 1 25 -3 14 -1 25 3 25 5 0 9 -3 9 -7 0 -5 11 -13 25 -20 14 -6
23 -7 19 -2 -3 5 4 9 15 9 12 0 21 -4 21 -9 0 -8 76 -23 139 -26 19 -1 37 -8
43 -18 5 -9 15 -17 22 -17 8 0 24 -8 37 -19 22 -18 64 -18 53 0 -9 15 13 10
26 -6 16 -19 100 -21 100 -2 1 7 6 5 14 -6 9 -12 16 -14 21 -7 3 5 11 8 16 5
5 -4 9 -1 9 5 0 7 7 10 14 7 10 -4 13 -1 10 8 -9 23 20 11 52 -22 32 -34 64
-38 74 -9 4 14 11 10 40 -21 73 -79 72 -77 84 -150 1 -7 5 -16 9 -19 4 -4 7
-17 7 -29 0 -11 5 -26 12 -33 7 -7 8 -12 3 -12 -4 0 -1 -8 7 -17 8 -10 18 -26
21 -36 5 -14 2 -16 -21 -12 l-27 6 25 -15 c14 -8 29 -12 34 -9 5 4 6 1 3 -4
-4 -6 0 -16 8 -23 20 -17 20 5 0 40 -30 53 -14 53 53 0 35 -28 49 -46 45 -57
-5 -14 -7 -14 -15 1 -5 9 -16 16 -23 16 -8 0 -15 8 -16 18 0 12 -2 13 -6 3 -7
-17 114 -134 129 -125 5 3 4 12 -3 20 -6 8 -8 14 -3 14 5 0 0 7 -10 15 -27 20
-11 19 19 -1 24 -15 25 -15 33 7 7 19 10 20 15 6 4 -10 2 -17 -4 -17 -6 0 -7
-5 -3 -12 4 -7 3 -8 -4 -4 -7 4 -12 3 -12 -3 0 -14 29 -41 46 -41 8 0 14 -9
14 -20 0 -18 3 -19 21 -9 20 10 21 9 15 -16 -6 -23 -5 -25 8 -13 7 7 12 16 9
21 -2 4 0 7 5 7 5 0 13 -10 17 -22 6 -20 8 -20 12 -5 7 27 21 20 15 -8 -3 -17
1 -27 12 -31 9 -3 16 -14 16 -23 0 -13 -2 -13 -9 -2 -5 7 -15 11 -22 9 -10 -3
-7 -11 12 -29 25 -24 44 -59 32 -59 -4 0 -15 8 -26 18 -11 9 -17 12 -14 5 4
-6 4 -13 0 -16 -5 -2 -3 -3 2 -1 14 3 37 -16 53 -44 8 -14 9 -22 1 -22 -6 0
-8 -9 -4 -22 7 -23 7 -23 -8 -3 -8 11 -13 23 -11 27 3 5 -2 8 -10 8 -8 0 -18
-5 -22 -12 -4 -7 -3 -8 4 -4 7 4 12 1 12 -7 0 -8 11 -26 25 -41 13 -14 21 -26
17 -27 -4 0 2 -4 13 -9 18 -8 18 -9 2 -9 -15 -1 -16 -4 -6 -22 7 -13 7 -24 2
-28 -17 -11 -22 -61 -6 -61 8 0 11 -5 8 -10 -4 -6 -11 -8 -16 -5 -5 3 -6 -1
-3 -9 4 -9 1 -16 -6 -16 -7 0 -10 -7 -6 -15 3 -9 0 -15 -9 -15 -19 0 -28 17
-13 23 7 2 -2 4 -19 3 -38 -1 -43 -12 -10 -22 36 -11 51 -26 35 -35 -10 -7
-10 -9 0 -9 6 0 12 -7 12 -15 0 -9 11 -20 25 -25 28 -11 34 -22 8 -14 -16 5
-16 4 -3 -8 16 -14 20 -32 8 -43 -4 -4 -4 -13 -1 -21 4 -12 0 -12 -21 -4 -18
7 -26 6 -26 -1 0 -8 -5 -7 -15 1 -13 11 -14 10 -9 -4 4 -10 13 -15 20 -12 8 3
14 1 14 -4 0 -6 5 -10 11 -10 5 0 7 6 3 13 -5 8 -3 8 9 -2 14 -11 18 -11 23 2
3 9 3 21 -1 27 -3 5 -1 10 5 10 6 0 8 11 6 25 -3 14 -1 25 3 25 4 0 8 7 8 15
0 8 -5 15 -10 15 -6 0 -6 5 0 13 6 6 8 46 6 87 -2 41 -4 98 -3 127 0 28 -4 54
-10 58 -6 3 -8 11 -4 16 6 10 -7 137 -42 421 -21 170 -64 337 -106 408 -5 8
-11 23 -14 33 -4 9 -11 17 -16 17 -6 0 -7 7 -4 15 3 9 -1 18 -8 21 -8 3 -17
15 -20 27 -3 13 -15 32 -26 45 -11 12 -18 22 -15 22 7 0 -20 30 -129 143 -52
53 -99 97 -105 97 -6 0 -11 5 -11 11 0 13 -24 36 -75 70 -19 13 -35 27 -35 32
0 4 -6 7 -13 7 -7 0 -29 15 -49 34 -20 19 -45 37 -57 41 -12 3 -21 10 -21 14
0 4 -18 16 -40 27 -22 10 -40 22 -40 27 0 4 -5 7 -10 7 -6 0 -23 13 -38 28
-16 16 -37 31 -48 34 -49 15 -90 34 -97 46 -5 7 -12 10 -18 7 -5 -4 -9 0 -9 7
0 9 -15 14 -44 16 -24 1 -60 11 -80 23 -27 16 -45 20 -70 15 -24 -5 -39 -2
-50 9 -9 9 -20 14 -25 11 -5 -4 -11 0 -14 6 -4 10 -7 10 -17 1 -10 -10 -19 -9
-42 5 -25 15 -30 15 -38 2 -5 -8 -10 -10 -10 -5 0 12 -255 17 -285 6z m-42
-721 c3 -11 1 -18 -4 -14 -5 3 -9 12 -9 20 0 20 7 17 13 -6z m66 -94 c1 -24
-2 -47 -6 -49 -10 -6 -15 71 -7 85 9 14 10 10 13 -36z m201 34 c0 -5 -5 -10
-11 -10 -5 0 -7 5 -4 10 3 6 8 10 11 10 2 0 4 -4 4 -10z m-1130 -260 c0 -5 -5
-10 -11 -10 -5 0 -7 5 -4 10 3 6 8 10 11 10 2 0 4 -4 4 -10z m2300 -110 c0 -5
-2 -10 -4 -10 -3 0 -8 5 -11 10 -3 6 -1 10 4 10 6 0 11 -4 11 -10z m-104 -42
c4 -7 4 -10 -1 -6 -4 4 -14 0 -22 -10 -10 -13 -13 -14 -11 -2 3 12 16 29 25
30 1 0 5 -6 9 -12z m107 -41 c5 3 7 1 3 -5 -3 -6 -2 -13 4 -17 5 -3 10 -11 10
-16 0 -6 -12 -1 -27 10 -14 12 -34 19 -43 16 -10 -3 -25 4 -36 16 -18 20 -18
20 10 13 23 -5 27 -4 20 7 -4 7 5 4 20 -9 16 -12 33 -19 39 -15z m-28 -28 c11
-17 -1 -21 -15 -4 -8 9 -8 15 -2 15 6 0 14 -5 17 -11z m108 -65 c-9 -23 -23
-16 -23 12 0 22 2 24 14 14 8 -6 12 -18 9 -26z m87 10 c0 -8 7 -14 15 -14 8 0
15 -3 15 -6 0 -3 -7 -12 -15 -20 -8 -9 -15 -13 -15 -10 0 10 -1 15 -10 46 -5
19 -5 28 1 25 5 -4 9 -13 9 -21z m-30 -45 c15 -28 5 -23 -15 7 -9 15 -12 23
-6 20 6 -4 16 -16 21 -27z m44 -36 c11 -26 -9 -37 -35 -19 l-23 16 22 0 c13 0
20 4 17 10 -3 6 -2 10 3 10 6 0 13 -8 16 -17z m146 -523 c0 -5 -6 -10 -12 -10
-8 0 -5 -7 6 -15 17 -13 17 -15 4 -15 -21 0 -30 14 -22 34 7 18 24 22 24 6z
m-3060 -10 c0 -5 -5 -10 -11 -10 -5 0 -7 5 -4 10 3 6 8 10 11 10 2 0 4 -4 4
-10z m3055 -50 c3 -6 -1 -7 -9 -4 -10 4 -16 1 -16 -7 0 -7 -3 -10 -6 -6 -7 7
4 27 16 27 5 0 12 -4 15 -10z"/>
<path d="M5003 9623 c11 -12 24 -19 31 -17 16 6 41 -22 27 -30 -6 -4 -7 -14
-4 -22 3 -9 9 -11 12 -6 4 6 11 4 20 -5 11 -12 10 -14 -5 -11 -12 2 -19 -3
-19 -12 0 -8 5 -15 12 -15 6 0 15 -4 20 -9 4 -5 3 -6 -4 -2 -6 3 -14 2 -18 -4
-3 -5 -1 -10 5 -10 6 0 9 -4 6 -8 -3 -5 0 -9 7 -9 19 0 15 86 -4 100 -9 7 -14
17 -12 24 5 13 -35 38 -45 29 -3 -3 -15 2 -26 11 -21 18 -21 18 -3 -4z"/>
<path d="M5042 9500 c7 -10 14 -18 15 -16 6 6 -9 36 -18 36 -5 0 -4 -9 3 -20z"/>
<path d="M5180 9501 c0 -5 5 -13 10 -16 6 -3 10 -2 10 4 0 5 -4 13 -10 16 -5
3 -10 2 -10 -4z"/>
<path d="M5195 9473 c-14 -11 -15 -14 -4 -10 9 3 21 1 27 -5 8 -8 9 -5 5 11
-3 11 -6 21 -7 21 0 0 -10 -8 -21 -17z"/>
<path d="M5251 9454 c0 -11 3 -14 6 -6 3 7 2 16 -1 19 -3 4 -6 -2 -5 -13z"/>
<path d="M5190 9441 c0 -6 4 -12 8 -15 5 -3 9 1 9 9 0 8 -4 15 -9 15 -4 0 -8
-4 -8 -9z"/>
<path d="M5287 9423 c-4 -3 -7 -14 -7 -24 0 -9 -6 -20 -12 -22 -10 -4 -10 -6
-1 -6 14 -1 26 16 30 42 3 18 0 21 -10 10z"/>
<path d="M5315 9419 c-4 -6 -4 -13 -1 -16 3 -4 6 0 6 8 0 11 2 12 9 1 7 -11 9
-11 14 2 7 18 -18 23 -28 5z"/>
<path d="M5210 9386 c0 -2 8 -10 18 -17 15 -13 16 -12 3 4 -13 16 -21 21 -21
13z"/>
<path d="M5335 9370 c3 -5 8 -10 11 -10 2 0 4 5 4 10 0 6 -5 10 -11 10 -5 0
-7 -4 -4 -10z"/>
<path d="M5181 9334 c0 -11 3 -14 6 -6 3 7 2 16 -1 19 -3 4 -6 -2 -5 -13z"/>
<path d="M5240 9346 c0 -2 9 -6 20 -9 11 -3 20 -1 20 4 0 5 -9 9 -20 9 -11 0
-20 -2 -20 -4z"/>
<path d="M5300 9330 c0 -5 5 -10 11 -10 5 0 7 5 4 10 -3 6 -8 10 -11 10 -2 0
-4 -4 -4 -10z"/>
<path d="M5370 9300 c0 -13 18 -22 24 -11 3 5 -1 11 -9 15 -8 3 -15 1 -15 -4z"/>
<path d="M5245 9290 c-3 -5 -2 -10 4 -10 5 0 13 5 16 10 3 6 2 10 -4 10 -5 0
-13 -4 -16 -10z"/>
<path d="M5351 9284 c0 -11 3 -14 6 -6 3 7 2 16 -1 19 -3 4 -6 -2 -5 -13z"/>
<path d="M5300 9260 c0 -5 5 -10 10 -10 6 0 10 5 10 10 0 6 -4 10 -10 10 -5 0
-10 -4 -10 -10z"/>
<path d="M5346 9193 c-6 -14 -5 -15 5 -6 7 7 10 15 7 18 -3 3 -9 -2 -12 -12z"/>
<path d="M5377 9176 c-4 -10 -1 -13 8 -9 8 3 12 9 9 14 -7 12 -11 11 -17 -5z"/>
<path d="M5340 9155 c0 -2 9 -9 19 -15 14 -7 22 -7 27 2 4 6 3 8 -4 4 -6 -3
-13 -2 -17 4 -6 10 -25 14 -25 5z"/>
<path d="M5396 9105 c-4 -14 -11 -23 -16 -20 -6 3 -10 1 -10 -4 0 -6 8 -11 18
-11 13 0 18 9 20 30 3 37 -4 39 -12 5z"/>
<path d="M5359 9107 c7 -7 14 -8 21 -1 6 6 2 10 -12 11 -16 2 -18 -1 -9 -10z"/>
<path d="M5380 9040 c0 -5 5 -10 11 -10 5 0 7 5 4 10 -3 6 -8 10 -11 10 -2 0
-4 -4 -4 -10z"/>
<path d="M5346 9028 c3 -4 9 -8 15 -8 5 0 9 4 9 8 0 5 -7 9 -15 9 -8 0 -12 -4
-9 -9z"/>
<path d="M5300 9010 c0 -6 -4 -9 -9 -5 -5 3 -13 0 -17 -6 -4 -8 -3 -9 4 -5 11
6 16 -6 13 -26 0 -5 4 -8 10 -8 6 0 8 7 5 17 -4 9 -2 20 5 23 8 6 8 9 0 14 -6
4 -11 2 -11 -4z"/>
<path d="M4565 9001 c-3 -6 0 -11 8 -11 8 0 21 -7 28 -16 12 -15 11 -16 -10
-9 -18 5 -22 4 -17 -6 4 -8 2 -7 -6 2 -14 17 -81 23 -71 6 4 -7 -1 -7 -13 -2
-10 5 -30 8 -44 8 -41 -1 -124 -11 -140 -17 -8 -3 -42 -8 -75 -11 -133 -12
-190 -28 -222 -59 -21 -22 -28 -24 -41 -14 -13 11 -15 9 -9 -17 4 -16 9 -40
13 -52 9 -34 -12 -28 -26 7 -13 32 -20 36 -36 20 -8 -8 -8 -23 0 -50 8 -31 15
-40 32 -40 12 0 25 6 28 13 3 6 3 0 0 -15 -5 -23 -2 -29 20 -38 27 -10 27 -10
9 -35 -10 -13 -26 -27 -36 -31 -15 -4 -17 -15 -15 -52 2 -25 9 -47 16 -50 6
-2 12 3 12 11 0 9 14 25 30 37 30 21 30 21 30 1 0 -12 -11 -27 -27 -35 -24
-13 -25 -15 -8 -16 11 0 35 9 53 20 37 23 40 18 12 -17 -29 -37 -25 -45 23
-43 58 2 94 -1 80 -7 -7 -2 -13 -9 -13 -15 0 -6 7 -7 16 -4 13 5 15 1 12 -19
-7 -35 9 -21 17 16 6 27 8 28 19 13 7 -9 18 -14 24 -10 5 3 12 1 14 -6 3 -9
12 -9 36 1 19 8 46 11 68 7 22 -5 34 -4 30 2 -8 14 21 35 53 38 22 3 30 -1 34
-16 3 -11 10 -20 16 -20 15 0 14 27 -1 33 -8 2 -1 10 15 18 19 8 37 32 55 71
15 32 29 58 32 58 12 0 70 -41 70 -49 0 -5 -13 -20 -28 -33 -25 -21 -27 -25
-13 -39 19 -18 55 -13 47 7 -3 8 -1 14 4 14 6 0 10 -5 10 -11 0 -8 4 -9 13 0
8 6 16 9 19 6 9 -9 131 20 135 32 2 6 -17 21 -42 32 -46 20 -53 41 -14 41 26
0 24 22 -3 47 -43 39 -103 70 -190 97 -48 16 -94 36 -103 46 -15 16 -14 18 7
23 13 2 43 5 68 6 25 1 72 7 105 14 58 11 59 12 25 17 -35 6 -35 6 12 11 25 2
44 0 41 -4 -3 -5 4 -4 17 3 24 13 55 6 45 -10 -4 -6 17 -10 57 -10 35 0 73 -3
86 -6 27 -8 28 5 3 33 -11 12 -17 24 -14 27 13 13 -77 39 -147 42 -93 4 -161
10 -199 19 -17 3 -32 2 -36 -4z m245 -46 c27 -15 20 -19 -17 -9 -13 4 -23 10
-23 15 0 12 11 11 40 -6z m-150 -5 c18 -12 2 -12 -25 0 -13 6 -15 9 -5 9 8 0
22 -4 30 -9z m-140 -195 c29 -10 32 -14 17 -20 -9 -4 -24 -2 -31 4 -9 8 -16 8
-20 2 -4 -6 -13 -8 -22 -4 -11 4 -12 9 -3 19 13 16 14 16 59 -1z m120 -39 c0
-3 -4 -8 -10 -11 -5 -3 -10 -1 -10 4 0 6 5 11 10 11 6 0 10 -2 10 -4z m50 -31
c8 -9 8 -15 2 -15 -18 0 -42 12 -42 21 0 14 26 10 40 -6z m-223 -41 c-9 -9
-28 6 -21 18 4 6 10 6 17 -1 6 -6 8 -13 4 -17z m-157 -36 c11 -24 27 -53 36
-65 16 -23 16 -23 -27 -22 -62 1 -113 21 -117 46 -2 14 10 30 39 52 24 17 44
31 46 31 2 0 12 -19 23 -42z"/>
<path d="M5365 8929 c-4 -6 -5 -12 -2 -15 2 -3 7 2 10 11 7 17 1 20 -8 4z"/>
<path d="M5374 8909 c-3 -6 -12 -8 -20 -5 -8 3 -14 1 -14 -5 0 -7 12 -9 30 -7
22 3 31 0 36 -14 3 -10 3 -21 0 -26 -2 -4 -1 -14 4 -21 9 -16 30 -6 30 15 0 8
-4 13 -9 10 -5 -3 -11 7 -14 23 -6 30 -32 48 -43 30z"/>
<path d="M2785 8853 c-22 -7 -47 -16 -55 -20 -20 -8 -26 -10 -89 -22 -30 -6
-55 -12 -56 -14 -10 -13 -25 -78 -25 -108 0 -38 1 -39 35 -39 19 0 35 5 35 10
0 6 7 10 15 10 8 0 15 4 15 9 0 12 109 7 140 -7 14 -6 21 -11 16 -11 -5 -1 -3
-7 3 -15 10 -12 8 -17 -8 -26 -12 -6 -21 -16 -21 -22 0 -7 -12 -25 -27 -40
-21 -22 -26 -37 -25 -67 2 -32 -2 -43 -28 -64 -16 -14 -30 -33 -30 -41 0 -19
1 -19 34 -6 17 6 27 6 32 -1 3 -6 18 -9 32 -6 28 5 82 -10 82 -23 0 -19 40
-20 74 0 30 16 51 20 116 17 58 -1 81 1 85 11 4 12 43 11 65 -3 13 -8 13 1 0
26 -8 15 -7 19 4 19 9 0 20 -9 26 -21 7 -11 14 -18 17 -15 4 3 12 1 20 -6 11
-9 12 -6 3 17 -13 33 -13 33 25 35 46 3 57 1 50 -11 -4 -6 -14 -8 -22 -5 -8 3
-21 -1 -29 -9 -12 -12 -13 -15 -2 -16 7 -1 19 -2 27 -3 17 -1 28 -26 12 -26
-6 0 -11 -7 -11 -16 0 -8 5 -12 10 -9 6 3 10 1 10 -4 0 -6 12 -11 26 -11 23 0
25 -2 14 -15 -11 -13 -10 -14 4 -9 9 3 16 13 16 22 0 8 3 12 6 9 4 -3 16 0 28
8 28 20 33 19 40 -10 l6 -25 41 22 c60 35 91 104 92 210 1 123 -21 177 -88
211 -16 8 -46 29 -65 46 -19 18 -40 29 -47 27 -7 -3 -13 -1 -13 5 0 6 -4 8 -9
4 -5 -3 -31 2 -57 11 -25 8 -54 14 -63 11 -10 -2 -46 0 -81 4 -42 6 -67 6 -76
-2 -8 -7 -19 -7 -31 -1 -10 6 -25 7 -33 2 -8 -4 -42 -8 -75 -7 -33 0 -71 -3
-84 -7 -14 -5 -21 -4 -18 1 12 19 -47 30 -88 16z m405 -293 c0 -5 -4 -10 -10
-10 -5 0 -10 5 -10 10 0 6 5 10 10 10 6 0 10 -4 10 -10z m123 -1 c31 -16 67
-50 67 -64 0 -13 -108 -41 -117 -31 -4 3 -1 17 5 31 7 14 12 37 12 50 0 28 3
29 33 14z m-303 -33 c0 -7 11 -30 25 -50 28 -42 33 -71 10 -62 -8 3 -15 1 -15
-4 0 -6 -7 -10 -15 -10 -8 0 -15 5 -15 11 0 5 -4 7 -10 4 -5 -3 -10 -2 -10 4
0 5 6 12 13 14 8 4 7 6 -3 7 -17 1 -60 34 -60 46 0 4 10 18 22 31 24 25 58 31
58 9z m360 -169 c0 -5 -4 -5 -10 -2 -5 3 -10 14 -10 23 0 15 2 15 10 2 5 -8
10 -19 10 -23z"/>
<path d="M5346 8844 c-3 -9 -4 -19 -2 -22 2 -4 -10 -6 -27 -6 -26 1 -31 5 -29
20 3 15 1 17 -9 7 -18 -17 1 -36 38 -38 35 -2 66 25 47 42 -9 9 -14 9 -18 -3z"/>
<path d="M5518 8774 c-55 -46 -53 -44 -42 -44 11 1 102 79 92 80 -3 0 -26 -16
-50 -36z"/>
<path d="M5350 8779 c0 -5 -4 -7 -10 -4 -6 4 -7 -1 -3 -11 4 -11 8 -13 11 -6
2 7 16 12 30 12 21 0 24 2 12 10 -20 13 -40 13 -40 -1z"/>
<path d="M5416 8761 c-3 -4 -16 -6 -29 -4 -17 3 -26 -2 -35 -21 -6 -14 -9 -34
-6 -43 5 -15 4 -16 -5 -3 -9 13 -11 11 -11 -7 0 -12 -3 -24 -8 -27 -4 -2 -7
-25 -6 -50 1 -39 -1 -45 -12 -35 -9 7 -14 8 -14 1 0 -5 7 -13 16 -16 20 -8 52
26 60 63 4 14 13 31 21 38 9 7 11 13 4 18 -8 4 -8 12 -1 25 7 13 7 21 -2 26
-7 4 -8 3 -4 -4 4 -7 2 -12 -3 -12 -12 0 -15 23 -4 33 3 4 12 2 20 -5 15 -12
26 -6 29 17 2 17 -2 19 -10 6z m-69 -126 c9 -25 -4 -29 -17 -6 -7 15 -7 21 0
21 6 0 13 -7 17 -15z"/>
<path d="M5276 8731 c-8 -13 22 -61 38 -60 7 0 6 2 -1 6 -7 2 -13 12 -13 21 0
25 -16 47 -24 33z"/>
<path d="M4417 8483 c-4 -3 -7 -11 -7 -17 0 -6 5 -5 12 2 6 6 9 14 7 17 -3 3
-9 2 -12 -2z"/>
<path d="M2304 8304 c1 -131 6 -182 20 -229 23 -72 27 -65 49 75 9 52 20 122
25 155 l10 60 -53 54 -54 54 3 -169z"/>
<path d="M5415 8361 c-7 -35 32 -101 47 -79 14 23 8 74 -10 91 -25 23 -29 22
-37 -12z"/>
<path d="M5695 8329 c-4 -6 -5 -12 -2 -15 2 -3 7 2 10 11 7 17 1 20 -8 4z"/>
<path d="M5681 8284 c0 -11 3 -14 6 -6 3 7 2 16 -1 19 -3 4 -6 -2 -5 -13z"/>
<path d="M2450 8049 c-16 -29 -15 -143 2 -194 11 -33 18 -41 42 -43 26 -3 28
-1 22 20 -4 13 -16 70 -26 127 -11 57 -22 106 -24 109 -2 2 -10 -6 -16 -19z"/>
<path d="M5490 8025 c0 -8 7 -15 15 -15 8 0 15 7 15 15 0 8 -7 15 -15 15 -8 0
-15 -7 -15 -15z"/>
<path d="M5403 7995 c-23 -16 -35 -59 -20 -74 24 -24 87 39 74 73 -8 20 -26
20 -54 1z"/>
<path d="M5260 7899 c0 -5 5 -7 10 -4 6 3 10 8 10 11 0 2 -4 4 -10 4 -5 0 -10
-5 -10 -11z"/>
<path d="M5250 7773 c0 -13 5 -23 10 -23 13 0 13 11 0 30 -8 12 -10 11 -10 -7z"/>
<path d="M5246 7707 c3 -10 9 -15 12 -12 3 3 0 11 -7 18 -10 9 -11 8 -5 -6z"/>
<path d="M5281 7689 c-1 -24 4 -39 14 -43 18 -7 19 9 0 49 l-13 30 -1 -36z"/>
<path d="M3870 7693 c-18 -7 -60 -44 -60 -53 0 -16 130 -42 168 -34 20 4 43 6
50 5 8 -1 12 5 10 16 -2 10 -27 30 -57 46 -53 26 -80 31 -111 20z"/>
<path d="M3507 7655 c-33 -32 -33 -36 -2 -65 13 -12 22 -27 19 -31 -7 -12 -51
-11 -58 0 -7 11 -56 21 -56 10 0 -12 52 -45 93 -58 20 -7 37 -18 37 -24 -1
-17 -25 -47 -39 -47 -6 0 -14 -7 -18 -16 -5 -14 -40 -33 -54 -30 -13 3 -38
-26 -33 -39 7 -17 -16 -31 -25 -16 -5 8 -13 5 -26 -9 -10 -11 -24 -20 -32 -20
-8 0 -12 -4 -8 -9 3 -5 0 -13 -6 -17 -8 -4 -9 -3 -5 4 9 14 5 15 -26 3 -13 -5
-27 -9 -33 -11 -5 -1 -24 -10 -41 -21 -17 -10 -40 -19 -51 -19 -12 0 -26 -7
-33 -15 -7 -8 -18 -15 -24 -15 -16 -1 -66 -47 -66 -61 0 -8 4 -8 15 1 9 7 18
10 21 7 7 -6 -23 -97 -38 -114 -8 -10 -6 -13 6 -13 9 0 17 -6 17 -12 1 -7 2
-17 4 -23 1 -5 3 -18 3 -27 1 -11 7 -15 17 -12 9 4 15 0 15 -9 0 -24 58 -14
87 15 22 23 28 24 57 14 17 -6 35 -16 39 -23 5 -8 15 -9 31 -3 13 5 27 5 32 0
11 -10 91 -24 81 -13 -18 18 79 33 236 37 92 3 172 8 179 12 7 4 33 9 58 11
26 1 62 9 81 17 21 9 40 11 50 6 10 -6 26 -3 43 6 16 8 34 14 41 14 6 0 27 7
44 16 18 9 51 16 74 16 22 -1 46 2 51 6 17 10 50 10 63 0 9 -7 20 -5 35 5 13
9 42 30 65 46 54 39 103 64 103 54 0 -5 6 -1 13 7 14 17 67 23 67 8 0 -6 6 -5
15 2 8 7 15 21 15 32 0 17 3 18 15 8 12 -10 15 -10 15 3 0 9 -5 28 -10 44
l-10 28 20 -24 c11 -13 20 -37 20 -55 1 -29 2 -30 15 -13 35 47 -20 160 -97
202 -46 25 -69 23 -28 -3 21 -13 18 -37 -7 -46 -9 -4 -23 -1 -31 6 -9 8 -13 8
-9 2 11 -19 -54 -9 -98 14 -5 3 -4 -2 4 -11 15 -19 8 -22 -19 -7 -13 7 -21 7
-25 0 -9 -14 -45 -13 -45 2 0 6 -3 8 -6 5 -4 -3 -15 -2 -25 4 -15 8 -19 6 -19
-7 0 -14 -3 -15 -22 -2 -13 8 -29 13 -35 12 -7 -1 -19 -2 -27 -3 -8 0 -14 -7
-13 -13 1 -31 -3 -71 -7 -67 -5 5 -16 49 -23 96 -3 21 -10 31 -22 31 -9 0 -24
3 -33 7 -14 5 -18 2 -18 -15 0 -13 -4 -19 -11 -14 -6 3 -16 0 -21 -7 -7 -10
-8 -8 -5 9 4 15 0 25 -9 29 -8 3 -11 9 -8 14 9 15 -53 66 -86 71 -29 4 -29 4
-12 -15 16 -19 16 -20 -5 -8 -19 9 -22 9 -17 -3 6 -16 -47 -27 -70 -14 -10 6
-16 5 -16 -1 0 -5 -9 -13 -20 -16 -11 -3 -20 -15 -20 -25 0 -10 -5 -20 -10
-22 -7 -2 -7 -15 0 -37 l10 -34 -44 46 c-24 26 -51 47 -60 47 -9 0 -16 6 -16
14 0 23 -31 48 -51 43 -11 -3 -19 -1 -19 4 0 5 4 9 10 9 5 0 7 7 4 15 -5 12 4
15 45 15 28 0 51 5 51 10 0 13 -61 68 -109 97 -47 29 -70 29 -104 -2z m399
-272 c-7 -7 -26 7 -26 19 0 6 6 6 15 -2 9 -7 13 -15 11 -17z m-436 -7 c0 -3
-4 -8 -10 -11 -5 -3 -10 -1 -10 4 0 6 5 11 10 11 6 0 10 -2 10 -4z m587 -48
c-3 -7 -5 -2 -5 12 0 14 2 19 5 13 2 -7 2 -19 0 -25z m78 -35 c-5 -22 -4 -25
8 -15 19 16 28 4 20 -26 -4 -17 -2 -23 6 -18 6 4 11 16 11 27 0 10 3 19 6 19
8 0 30 -24 37 -40 4 -10 6 -8 6 7 1 12 -3 25 -9 28 -13 8 -13 42 0 50 6 3 7
-1 4 -9 -3 -9 -1 -16 5 -16 7 0 17 -13 22 -30 6 -16 17 -30 25 -30 8 0 14 -5
14 -11 0 -5 -5 -7 -12 -3 -7 4 -8 3 -4 -4 4 -7 14 -12 23 -12 12 0 14 9 12 43
l-4 43 33 -19 c19 -11 36 -26 39 -33 7 -19 56 -33 76 -22 12 6 17 5 17 -5 0
-20 -96 -56 -170 -63 -36 -4 -69 -12 -75 -19 -20 -24 -56 -36 -120 -40 -42 -3
-65 -1 -65 6 0 6 -8 1 -18 -11 -31 -38 -87 -51 -237 -54 -116 -3 -143 -1 -157
12 -11 9 -18 11 -18 4 0 -22 -19 -12 -32 15 -25 52 -65 53 -191 7 -43 -16 -91
-19 -82 -5 3 5 -3 11 -12 14 -14 3 -11 7 12 17 69 29 78 36 103 80 14 25 32
51 39 58 11 11 13 10 13 -7 0 -12 -4 -21 -10 -21 -14 0 -13 -27 2 -36 7 -5 8
-3 3 6 -6 10 -2 11 19 6 15 -4 26 -2 26 4 0 5 7 10 16 10 8 0 12 5 9 10 -4 6
-4 18 -1 27 6 14 8 14 21 -3 9 -12 14 -14 15 -6 0 7 7 20 15 28 13 14 15 13
15 -10 0 -33 18 -34 26 -1 3 14 10 23 14 20 5 -3 10 0 12 6 5 16 48 2 48 -16
0 -8 21 -17 58 -23 51 -9 61 -8 97 11 22 12 46 28 53 35 7 6 18 12 23 12 5 0
9 7 9 15 0 22 18 18 25 -5 4 -11 11 -18 16 -14 5 3 7 15 3 26 -4 15 -2 19 7
16 8 -3 13 -17 12 -32 -2 -22 1 -26 17 -21 10 3 21 1 24 -4 9 -13 36 -2 36 14
0 7 8 19 17 26 11 10 14 10 9 2 -4 -7 -3 -13 3 -13 6 0 14 12 17 26 6 23 8 24
16 10 6 -10 7 -29 3 -43z m250 7 c3 -5 1 -10 -4 -10 -6 0 -11 5 -11 10 0 6 2
10 4 10 3 0 8 -4 11 -10z m195 -10 c0 -5 -2 -10 -4 -10 -3 0 -8 5 -11 10 -3 6
-1 10 4 10 6 0 11 -4 11 -10z m-1177 -88 c-2 -11 -15 -19 -31 -20 l-27 -2 25
20 c31 24 39 25 33 2z m157 -138 c0 -8 -4 -12 -10 -9 -5 3 -10 13 -10 21 0 8
5 12 10 9 6 -3 10 -13 10 -21z"/>
<path d="M2850 7069 c0 -5 5 -7 10 -4 6 3 10 8 10 11 0 2 -4 4 -10 4 -5 0 -10
-5 -10 -11z"/>
<path d="M2938 6893 c7 -3 16 -2 19 1 4 3 -2 6 -13 5 -11 0 -14 -3 -6 -6z"/>
<path d="M5230 6861 c0 -14 24 -31 43 -31 16 0 17 3 8 14 -13 15 -51 28 -51
17z"/>
<path d="M5360 6810 c14 -12 43 -33 65 -46 34 -20 36 -23 17 -24 -12 0 -38 7
-57 14 -40 17 -41 15 -20 -44 20 -57 20 -74 -2 -61 -9 5 -24 32 -33 60 -10 28
-13 48 -8 45 4 -3 8 -1 8 5 0 15 -15 22 -61 27 -37 5 -41 3 -34 -13 3 -10 9
-43 12 -73 l6 -55 -22 19 -21 19 0 -196 c0 -180 -2 -205 -26 -294 -14 -54 -25
-109 -25 -123 2 -43 -21 -122 -46 -159 -14 -20 -29 -46 -34 -58 -15 -38 -120
-187 -165 -232 -24 -25 -44 -50 -44 -57 0 -7 -6 -17 -13 -21 -18 -12 -99 -113
-119 -149 -21 -37 -72 -94 -85 -94 -5 0 -14 -20 -21 -44 -6 -24 -29 -66 -52
-95 -22 -28 -38 -51 -36 -51 2 0 1 -12 -3 -27 -5 -17 -16 -30 -32 -33 -16 -5
-23 -12 -21 -26 1 -10 4 -31 5 -46 4 -52 17 -46 118 60 9 9 36 53 60 97 81
151 167 284 304 466 39 52 84 114 100 138 17 24 65 94 107 155 131 188 204
334 309 618 36 96 38 111 29 150 -22 93 -37 122 -67 129 -49 11 -58 14 -63 20
-3 4 -16 10 -30 14 l-25 7 25 -22z m-66 -45 c3 -8 1 -15 -3 -15 -5 0 -11 7
-15 15 -3 8 -1 15 3 15 5 0 11 -7 15 -15z"/>
<path d="M3918 6764 c-2 -1 -38 -4 -81 -5 -43 -1 -80 -6 -83 -11 -3 -4 -9 -6
-14 -3 -5 3 -16 -2 -24 -11 -9 -8 -26 -15 -39 -14 -48 4 -63 -1 -79 -30 -16
-28 -16 -30 0 -31 9 -1 24 -2 32 -3 8 0 14 -9 12 -18 -4 -22 5 -22 41 -3 27
14 28 13 22 -5 -8 -26 2 -25 27 3 l20 22 -6 -23 c-3 -17 -1 -22 9 -18 8 3 15
-2 17 -11 3 -15 4 -15 20 0 20 20 32 7 22 -25 -5 -17 -3 -20 10 -15 11 4 16 1
16 -9 0 -12 6 -15 24 -10 21 5 23 3 19 -17 -3 -12 -10 -28 -16 -35 -5 -7 -7
-15 -4 -18 3 -3 13 9 23 28 52 99 55 103 48 78 -6 -24 -6 -24 10 -5 8 11 16
35 16 53 0 19 6 35 15 38 8 4 12 10 9 16 -3 5 10 2 30 -6 l36 -15 0 28 c0 46
-28 71 -82 75 -26 2 -48 2 -50 0z"/>
<path d="M3154 6425 c-16 -12 -16 -14 -3 -15 9 0 19 -9 22 -20 3 -11 11 -19
17 -18 7 2 14 -6 16 -17 12 -72 19 -91 38 -108 12 -10 15 -16 9 -12 -7 3 -13
2 -13 -3 0 -6 11 -13 25 -16 14 -4 23 -11 20 -16 -3 -6 0 -10 7 -10 9 0 9 -3
-2 -10 -12 -8 -9 -10 11 -10 30 0 46 -25 23 -34 -8 -3 -13 -2 -10 2 3 5 -1 9
-7 9 -21 0 -18 -36 4 -47 15 -8 19 -7 19 5 0 8 5 15 11 15 6 0 9 -6 6 -13 -4
-10 2 -13 21 -9 20 4 24 2 19 -12 -4 -9 -2 -16 3 -16 6 0 10 -6 10 -14 0 -8 6
-16 14 -19 8 -3 16 -16 18 -29 2 -18 8 -22 27 -20 19 3 22 0 17 -13 -4 -13 -2
-16 9 -12 8 4 17 2 21 -4 3 -6 12 -8 20 -5 7 3 16 1 19 -4 3 -5 -3 -11 -12
-13 -10 -3 -2 -5 17 -6 19 0 30 3 23 7 -7 4 -9 13 -5 19 5 8 17 7 42 -4 31
-13 33 -16 15 -23 -20 -7 -20 -7 1 -14 12 -3 33 -2 48 4 35 13 59 13 51 0 -5
-9 31 -14 82 -13 6 0 9 -6 6 -13 -3 -8 0 -14 6 -14 6 0 11 4 11 9 0 5 22 17
49 27 32 11 51 24 55 38 3 11 8 17 12 13 4 -4 13 1 20 11 13 16 13 16 14 -1 0
-17 1 -17 16 -3 19 19 28 21 18 4 -5 -10 -4 -10 5 -2 7 6 37 9 72 7 38 -3 66
0 75 8 8 6 14 8 14 4 0 -5 9 0 19 9 12 11 17 25 13 38 -3 15 -1 19 7 14 6 -4
9 -12 6 -17 -4 -5 -1 -9 5 -9 6 0 13 6 16 14 3 8 12 12 19 10 7 -3 15 2 17 12
3 17 4 17 21 0 9 -10 17 -13 17 -8 0 5 8 9 18 8 10 0 16 6 16 16 -1 10 2 16 6
13 5 -3 18 9 31 26 19 27 26 30 55 26 33 -6 41 3 35 37 -1 5 1 22 5 39 4 21 9
26 15 16 6 -10 10 -7 18 13 9 24 56 47 69 34 7 -8 42 34 42 51 0 7 5 13 11 13
5 0 7 5 4 10 -10 15 -52 12 -59 -5 -3 -8 -12 -15 -20 -15 -10 0 -13 -6 -9 -16
4 -12 2 -15 -8 -12 -8 3 -20 -2 -28 -9 -10 -11 -16 -11 -21 -3 -5 8 -10 9 -14
2 -4 -6 -13 -9 -21 -5 -10 3 -15 -1 -15 -11 0 -14 -4 -15 -20 -6 -14 8 -20 8
-20 0 0 -6 -7 -18 -15 -26 -12 -13 -15 -12 -25 6 -9 17 -14 19 -26 9 -11 -9
-17 -9 -29 1 -13 11 -14 10 -10 -2 8 -21 -36 -33 -51 -13 -8 11 -13 12 -24 2
-10 -10 -11 -4 -6 28 5 29 4 36 -3 25 -6 -8 -11 -11 -11 -6 0 4 -9 -2 -20 -15
-10 -13 -19 -20 -20 -15 0 5 -7 3 -15 -4 -8 -7 -15 -9 -15 -5 0 4 -6 2 -14 -4
-11 -9 -15 -8 -20 4 -3 9 -10 13 -16 10 -5 -3 -10 2 -10 12 -1 10 -11 -6 -24
-36 l-23 -54 -14 32 c-14 31 -23 38 -32 24 -2 -5 -2 -3 -1 4 2 6 -5 17 -14 25
-10 8 -13 8 -9 1 4 -6 3 -14 -3 -18 -5 -3 -7 -19 -3 -35 3 -19 1 -30 -6 -30
-6 0 -11 5 -11 12 0 6 -3 8 -6 5 -4 -3 -16 -2 -26 4 -14 8 -23 8 -31 0 -7 -7
-14 -4 -21 11 -6 12 -18 22 -26 24 -8 1 -22 5 -30 8 -10 4 -21 -3 -32 -21 -16
-25 -17 -26 -18 -7 0 25 -40 41 -52 21 -4 -7 -8 -8 -8 -3 0 5 -6 4 -13 -3 -10
-8 -17 -7 -25 1 -9 9 -12 9 -12 -1 0 -7 -4 -10 -9 -6 -5 3 -12 -3 -14 -12 -3
-11 -5 -6 -6 11 0 16 -4 26 -8 23 -3 -4 -14 0 -23 8 -15 14 -16 12 -12 -15 4
-29 -11 -42 -21 -17 -4 9 -8 9 -15 -2 -8 -11 -11 -8 -15 15 -4 27 -4 28 -6 3
-1 -28 -35 -66 -45 -51 -3 5 1 15 9 22 23 19 18 31 -10 24 -19 -5 -25 -2 -25
11 0 13 -6 16 -23 11 -17 -4 -32 3 -56 24 -18 17 -39 30 -47 30 -8 0 -14 4
-14 10 0 5 -12 13 -26 16 -16 4 -23 12 -20 20 4 9 -2 14 -15 14 -11 0 -17 5
-14 10 3 6 -1 10 -10 10 -8 0 -18 7 -21 15 -8 19 -15 19 -40 0z m640 -209 c-5
-13 -9 -14 -14 -5 -11 16 0 43 12 31 5 -5 6 -17 2 -26z m-357 -152 c-9 -9 -28
6 -21 18 4 6 10 6 17 -1 6 -6 8 -13 4 -17z m723 -70 c0 -2 -9 -4 -20 -4 -11 0
-20 4 -20 9 0 5 9 7 20 4 11 -3 20 -7 20 -9z"/>
<path d="M4540 6390 c0 -5 5 -10 11 -10 5 0 7 5 4 10 -3 6 -8 10 -11 10 -2 0
-4 -4 -4 -10z"/>
<path d="M4618 6393 c6 -2 18 -2 25 0 6 3 1 5 -13 5 -14 0 -19 -2 -12 -5z"/>
<path d="M3915 6350 c-3 -5 -1 -10 4 -10 6 0 11 5 11 10 0 6 -2 10 -4 10 -3 0
-8 -4 -11 -10z"/>
<path d="M3225 6066 c-21 -45 -28 -76 -30 -135 -1 -42 2 -89 7 -106 5 -16 11
-34 12 -40 2 -5 9 -23 17 -40 11 -24 13 -87 11 -312 -1 -180 2 -284 8 -288 5
-3 10 3 10 14 0 11 13 44 28 73 34 62 46 102 43 143 -1 17 -6 140 -11 275 -10
233 -22 330 -58 445 l-10 30 -27 -59z"/>
<path d="M4020 5520 c0 -5 5 -10 10 -10 6 0 10 5 10 10 0 6 -4 10 -10 10 -5 0
-10 -4 -10 -10z"/>
<path d="M3250 5093 c0 -21 3 -24 9 -14 5 8 7 20 4 28 -8 21 -13 15 -13 -14z"/>
<path d="M3760 4120 c0 -23 10 -26 28 -8 18 18 15 28 -8 28 -13 0 -20 -7 -20
-20z"/>
<path d="M6638 2365 c-3 -6 -9 -28 -14 -50 -4 -22 -10 -42 -14 -45 -4 -3 -10
-16 -14 -30 -4 -14 7 -1 24 27 20 34 30 63 28 80 -2 16 -6 23 -10 18z"/>
<path d="M6400 1920 c-12 -17 -20 -37 -18 -46 2 -10 12 2 25 30 26 53 24 59
-7 16z"/>
<path d="M6382 1518 c15 -44 29 -61 40 -50 6 6 1 24 -14 46 -29 45 -40 46 -26
4z"/>
<path d="M6366 1148 c-3 -24 -2 -65 3 -93 8 -46 9 -43 10 43 0 50 -1 92 -3 92
-2 0 -6 -19 -10 -42z"/>
<path d="M6327 598 c-6 -21 -2 -36 7 -27 10 11 16 49 8 49 -5 0 -12 -10 -15
-22z"/>
<path d="M1419 98 c7 -19 22 -26 85 -39 64 -14 78 -15 83 -3 2 7 2 18 -2 23
-8 14 -101 41 -141 41 -30 0 -33 -2 -25 -22z"/>
</g>
</svg>
